<svg width="136" height="20" viewBox="0 0 136 20" fill="none" xmlns="http://www.w3.org/2000/svg">
<path d="M1.52344 0.654297H3.81836L11.0645 12.2754V0.654297H12.9102V15H10.7324L3.37891 3.38867V15H1.52344V0.654297ZM15.5422 4.58984H17.3293V15H15.5422V4.58984ZM15.5422 0.654297H17.3293V2.64648H15.5422V0.654297ZM19.7953 4.54102H21.4652V6.02539C21.96 5.41341 22.4841 4.97396 23.0375 4.70703C23.5909 4.4401 24.2061 4.30664 24.8832 4.30664C26.3676 4.30664 27.3702 4.82422 27.891 5.85938C28.1775 6.42578 28.3207 7.23633 28.3207 8.29102V15H26.5336V8.4082C26.5336 7.77018 26.4392 7.25586 26.2504 6.86523C25.9379 6.21419 25.3715 5.88867 24.5512 5.88867C24.1345 5.88867 23.7927 5.93099 23.5258 6.01562C23.044 6.15885 22.6208 6.44531 22.2563 6.875C21.9633 7.22005 21.7712 7.57812 21.6801 7.94922C21.5954 8.3138 21.5531 8.83789 21.5531 9.52148V15H19.7953V4.54102ZM32.0758 12.2168C32.0758 12.7246 32.2613 13.125 32.6324 13.418C33.0035 13.7109 33.443 13.8574 33.9508 13.8574C34.5693 13.8574 35.1682 13.7142 35.7477 13.4277C36.7242 12.9525 37.2125 12.1745 37.2125 11.0938V9.67773C36.9977 9.81445 36.721 9.92839 36.3824 10.0195C36.0439 10.1107 35.7118 10.1758 35.3863 10.2148L34.3219 10.3516C33.6839 10.4362 33.2053 10.5697 32.8863 10.752C32.346 11.0579 32.0758 11.5462 32.0758 12.2168ZM36.3336 8.66211C36.7372 8.61003 37.0074 8.44076 37.1441 8.1543C37.2223 7.99805 37.2613 7.77344 37.2613 7.48047C37.2613 6.88151 37.0465 6.44857 36.6168 6.18164C36.1936 5.9082 35.5849 5.77148 34.7906 5.77148C33.8727 5.77148 33.2216 6.01888 32.8375 6.51367C32.6227 6.78711 32.4827 7.19401 32.4176 7.73438H30.777C30.8095 6.44531 31.2262 5.55013 32.027 5.04883C32.8342 4.54102 33.7685 4.28711 34.8297 4.28711C36.0602 4.28711 37.0595 4.52148 37.8277 4.99023C38.5895 5.45898 38.9703 6.18815 38.9703 7.17773V13.2031C38.9703 13.3854 39.0061 13.5319 39.0777 13.6426C39.1559 13.7533 39.3154 13.8086 39.5562 13.8086C39.6344 13.8086 39.7223 13.8053 39.8199 13.7988C39.9176 13.7858 40.0217 13.7695 40.1324 13.75V15.0488C39.859 15.127 39.6507 15.1758 39.5074 15.1953C39.3642 15.2148 39.1689 15.2246 38.9215 15.2246C38.316 15.2246 37.8766 15.0098 37.6031 14.5801C37.4599 14.3522 37.359 14.0299 37.3004 13.6133C36.9423 14.082 36.428 14.4889 35.7574 14.834C35.0868 15.179 34.3479 15.3516 33.5406 15.3516C32.5706 15.3516 31.7763 15.0586 31.1578 14.4727C30.5458 13.8802 30.2398 13.1413 30.2398 12.2559C30.2398 11.2858 30.5426 10.5339 31.148 10C31.7535 9.46615 32.5478 9.13737 33.5309 9.01367L36.3336 8.66211Z" fill="#ECECEC"/>
<path d="M48.3945 0.654297L52.5156 12.8711L56.5879 0.654297H58.7656L53.5312 15H51.4707L46.2461 0.654297H48.3945ZM63.2238 13.8672C64.3892 13.8672 65.1867 13.4277 65.6164 12.5488C66.0526 11.6634 66.2707 10.6803 66.2707 9.59961C66.2707 8.62305 66.1145 7.82878 65.802 7.2168C65.3072 6.25326 64.4543 5.77148 63.2434 5.77148C62.1691 5.77148 61.3879 6.18164 60.8996 7.00195C60.4113 7.82227 60.1672 8.81185 60.1672 9.9707C60.1672 11.084 60.4113 12.0117 60.8996 12.7539C61.3879 13.4961 62.1626 13.8672 63.2238 13.8672ZM63.2922 4.23828C64.6398 4.23828 65.7792 4.6875 66.7102 5.58594C67.6411 6.48438 68.1066 7.80599 68.1066 9.55078C68.1066 11.237 67.6965 12.6302 66.8762 13.7305C66.0559 14.8307 64.7831 15.3809 63.0578 15.3809C61.619 15.3809 60.4764 14.8958 59.6301 13.9258C58.7837 12.9492 58.3605 11.6406 58.3605 10C58.3605 8.24219 58.8065 6.84245 59.6984 5.80078C60.5904 4.75911 61.7883 4.23828 63.2922 4.23828ZM76.5395 4.54102H78.4828C78.2354 5.21159 77.6853 6.74154 76.8324 9.13086C76.1944 10.9277 75.6605 12.3926 75.2309 13.5254C74.2152 16.1947 73.4991 17.8223 73.0824 18.4082C72.6658 18.9941 71.9496 19.2871 70.934 19.2871C70.6866 19.2871 70.4945 19.2773 70.3578 19.2578C70.2276 19.2383 70.0648 19.2025 69.8695 19.1504V17.5488C70.1755 17.6335 70.3969 17.6855 70.5336 17.7051C70.6703 17.7246 70.7908 17.7344 70.8949 17.7344C71.2204 17.7344 71.4581 17.679 71.6078 17.5684C71.7641 17.4642 71.8943 17.334 71.9984 17.1777C72.031 17.1257 72.1482 16.8587 72.35 16.377C72.5518 15.8952 72.6983 15.5371 72.7895 15.3027L68.9223 4.54102H70.9145L73.7172 13.0566L76.5395 4.54102ZM80.1578 1.62109H81.9352V4.54102H83.6051V5.97656H81.9352V12.8027C81.9352 13.1673 82.0589 13.4115 82.3063 13.5352C82.443 13.6068 82.6708 13.6426 82.9898 13.6426C83.0745 13.6426 83.1656 13.6426 83.2633 13.6426C83.3609 13.6361 83.4749 13.6263 83.6051 13.6133V15C83.4033 15.0586 83.1917 15.1009 82.9703 15.127C82.7555 15.153 82.5211 15.166 82.2672 15.166C81.4469 15.166 80.8902 14.9577 80.5973 14.541C80.3043 14.1178 80.1578 13.571 80.1578 12.9004V5.97656H78.7418V4.54102H80.1578V1.62109ZM89.323 13.8672C90.4884 13.8672 91.2859 13.4277 91.7156 12.5488C92.1518 11.6634 92.3699 10.6803 92.3699 9.59961C92.3699 8.62305 92.2137 7.82878 91.9012 7.2168C91.4064 6.25326 90.5535 5.77148 89.3426 5.77148C88.2684 5.77148 87.4871 6.18164 86.9988 7.00195C86.5105 7.82227 86.2664 8.81185 86.2664 9.9707C86.2664 11.084 86.5105 12.0117 86.9988 12.7539C87.4871 13.4961 88.2618 13.8672 89.323 13.8672ZM89.3914 4.23828C90.7391 4.23828 91.8784 4.6875 92.8094 5.58594C93.7404 6.48438 94.2059 7.80599 94.2059 9.55078C94.2059 11.237 93.7957 12.6302 92.9754 13.7305C92.1551 14.8307 90.8823 15.3809 89.157 15.3809C87.7182 15.3809 86.5756 14.8958 85.7293 13.9258C84.8829 12.9492 84.4598 11.6406 84.4598 10C84.4598 8.24219 84.9057 6.84245 85.7977 5.80078C86.6896 4.75911 87.8875 4.23828 89.3914 4.23828ZM96.9648 4.54102L99.7578 13.0566L102.678 4.54102H104.602L100.656 15H98.7812L94.9238 4.54102H96.9648ZM112.439 4.54102H114.382C114.135 5.21159 113.585 6.74154 112.732 9.13086C112.094 10.9277 111.56 12.3926 111.13 13.5254C110.114 16.1947 109.398 17.8223 108.982 18.4082C108.565 18.9941 107.849 19.2871 106.833 19.2871C106.586 19.2871 106.394 19.2773 106.257 19.2578C106.127 19.2383 105.964 19.2025 105.769 19.1504V17.5488C106.075 17.6335 106.296 17.6855 106.433 17.7051C106.57 17.7246 106.69 17.7344 106.794 17.7344C107.12 17.7344 107.357 17.679 107.507 17.5684C107.663 17.4642 107.793 17.334 107.898 17.1777C107.93 17.1257 108.047 16.8587 108.249 16.377C108.451 15.8952 108.598 15.5371 108.689 15.3027L104.821 4.54102H106.814L109.616 13.0566L112.439 4.54102ZM119.739 4.23828C120.917 4.23828 121.874 4.52474 122.61 5.09766C123.352 5.67057 123.798 6.6569 123.948 8.05664H122.239C122.135 7.41211 121.897 6.87826 121.526 6.45508C121.155 6.02539 120.559 5.81055 119.739 5.81055C118.619 5.81055 117.818 6.35742 117.336 7.45117C117.024 8.16081 116.868 9.03646 116.868 10.0781C116.868 11.1263 117.089 12.0085 117.532 12.7246C117.974 13.4408 118.671 13.7988 119.621 13.7988C120.351 13.7988 120.927 13.5775 121.35 13.1348C121.78 12.6855 122.076 12.0736 122.239 11.2988H123.948C123.752 12.6855 123.264 13.7012 122.483 14.3457C121.702 14.9837 120.702 15.3027 119.485 15.3027C118.118 15.3027 117.027 14.8047 116.213 13.8086C115.399 12.806 114.993 11.556 114.993 10.0586C114.993 8.22266 115.439 6.79362 116.33 5.77148C117.222 4.74935 118.358 4.23828 119.739 4.23828ZM125.505 0.605469H127.263V5.95703C127.68 5.42969 128.054 5.05859 128.386 4.84375C128.953 4.47266 129.659 4.28711 130.505 4.28711C132.022 4.28711 133.051 4.81771 133.591 5.87891C133.884 6.45833 134.031 7.26237 134.031 8.29102V15H132.224V8.4082C132.224 7.63997 132.127 7.07682 131.931 6.71875C131.612 6.14583 131.013 5.85938 130.134 5.85938C129.405 5.85938 128.744 6.11003 128.152 6.61133C127.56 7.11263 127.263 8.0599 127.263 9.45312V15H125.505V0.605469Z" fill="#373737"/>
</svg>
