<svg width="40" height="62" viewBox="0 0 40 62" fill="none" xmlns="http://www.w3.org/2000/svg">
<path d="M0 0H40V62L20.4444 47.5L0 62V0Z" fill="#AE9058"/>
<path d="M16.9 38.16C15.06 38.16 13.6133 37.6333 12.56 36.58C11.5067 35.5267 10.98 33.9867 10.98 31.96V24H12.98V31.88C12.98 33.44 13.32 34.58 14 35.3C14.6933 36.02 15.6667 36.38 16.92 36.38C18.1867 36.38 19.16 36.02 19.84 35.3C20.5333 34.58 20.88 33.44 20.88 31.88V24H22.82V31.96C22.82 33.9867 22.2933 35.5267 21.24 36.58C20.2 37.6333 18.7533 38.16 16.9 38.16ZM26.7203 38V24H28.7203V38H26.7203Z" fill="white"/>
</svg>
