<svg width="40" height="40" viewBox="0 0 40 40" fill="none" xmlns="http://www.w3.org/2000/svg">
  <rect width="40" height="40" rx="8" fill="#1DB954"/>
  <path d="M20 8C13.3726 8 8 13.3726 8 20C8 26.6274 13.3726 32 20 32C26.6274 32 32 26.6274 32 20C32 13.3726 26.6274 8 20 8ZM28.5 22.5C28.2239 22.5 28 22.2761 28 22C28 21.7239 28.2239 21.5 28.5 21.5C28.7761 21.5 29 21.7239 29 22C29 22.2761 28.7761 22.5 28.5 22.5ZM24.5 21C24.2239 21 24 20.7761 24 20.5C24 20.2239 24.2239 20 24.5 20C24.7761 20 25 20.2239 25 20.5C25 20.7761 24.7761 21 24.5 21ZM20.5 19.5C20.2239 19.5 20 19.2761 20 19C20 18.7239 20.2239 18.5 20.5 18.5C20.7761 18.5 21 18.7239 21 19C21 19.2761 20.7761 19.5 20.5 19.5ZM16.5 20C16.2239 20 16 19.7761 16 19.5C16 19.2239 16.2239 19 16.5 19C16.7761 19 17 19.2239 17 19.5C17 19.7761 16.7761 20 16.5 20ZM12.5 21.5C12.2239 21.5 12 21.2761 12 21C12 20.7239 12.2239 20.5 12.5 20.5C12.7761 20.5 13 20.7239 13 21C13 21.2761 12.7761 21.5 12.5 21.5Z" fill="white"/>
</svg>
